<svg width="66" height="66" viewBox="0 0 66 66" fill="none" xmlns="http://www.w3.org/2000/svg">
<circle cx="33" cy="33" r="32" stroke="white" stroke-width="2"/>
<path d="M28.6013 18.4882C29.1098 18.9967 29.2348 19.7741 28.9113 20.4164C28.0678 22.0912 27.592 23.9839 27.592 25.9926C27.592 32.8494 33.1506 38.408 40.0074 38.408C42.0161 38.408 43.9089 37.9322 45.5836 37.0887C46.2259 36.7652 47.0033 36.8902 47.5118 37.3987C48.0204 37.9073 48.1454 38.6846 47.8219 39.327C45.2327 44.4677 39.9047 48 33.7487 48C25.0509 48 18 40.9491 18 32.2513C18 26.0953 21.5323 20.7673 26.6731 18.1782C27.3154 17.8547 28.0928 17.9796 28.6013 18.4882ZM24.3695 24.116C22.4773 26.2957 21.3333 29.1405 21.3333 32.2513C21.3333 39.1081 26.8919 44.6667 33.7487 44.6667C36.8595 44.6667 39.7043 43.5227 41.884 41.6305C41.2684 41.7037 40.6422 41.7413 40.0074 41.7413C31.3096 41.7413 24.2587 34.6904 24.2587 25.9926C24.2587 25.3579 24.2963 24.7316 24.3695 24.116Z" fill="white"/>
</svg>
