<svg width="36" height="36" viewBox="0 0 36 36" fill="none" xmlns="http://www.w3.org/2000/svg">
<path d="M0.225003 34.6L1.05 28.375C3.1 28.525 4.65 28.125 5.7 27.175C6.75 26.225 7.425 24.925 7.72501 23.275C8.025 21.625 8.1 19.8 7.95 17.8L0.225004 17.8L0.225006 0.849998L14.925 0.849999L14.925 20.05C14.925 25.3 13.65 29.25 11.1 31.9C8.5 34.6 4.875 35.5 0.225003 34.6ZM21.3 34.6L22.125 28.375C24.175 28.525 25.725 28.125 26.775 27.175C27.825 26.225 28.5 24.925 28.8 23.275C29.1 21.625 29.175 19.8 29.025 17.8L21.3 17.8L21.3 0.85L36 0.850001L36 20.05C36 25.3 34.725 29.25 32.175 31.9C29.575 34.6 25.95 35.5 21.3 34.6Z" fill="#14B789"/>
</svg>
