<svg width="24" height="24" viewBox="0 0 24 24" fill="none" xmlns="http://www.w3.org/2000/svg">
<path d="M21.945 2.76481C21.7294 2.58608 21.4694 2.46904 21.1927 2.42608C20.9159 2.38312 20.6327 2.41586 20.373 2.52081L2.45602 9.75381C2.16649 9.87279 1.92 10.077 1.74926 10.3394C1.57852 10.6017 1.49161 10.9098 1.50008 11.2227C1.50854 11.5356 1.61197 11.8386 1.79664 12.0913C1.98131 12.3441 2.23848 12.5347 2.53402 12.6378L6.40002 13.9798L8.49502 20.9058C8.49902 20.9198 8.51202 20.9288 8.51802 20.9418C8.53961 20.9971 8.57113 21.0479 8.61102 21.0918C8.67164 21.1595 8.74989 21.209 8.83702 21.2348C8.84702 21.2388 8.85402 21.2478 8.86402 21.2498H8.87002L8.87302 21.2508C8.95039 21.2675 9.03078 21.2633 9.10602 21.2388C9.11402 21.2368 9.12202 21.2368 9.13102 21.2338C9.20327 21.2085 9.26865 21.1667 9.32202 21.1118C9.32802 21.1048 9.33802 21.1038 9.34402 21.0978L12.357 17.7718L16.754 21.1768C17.021 21.3858 17.35 21.4988 17.689 21.4988C18.423 21.4988 19.056 20.9848 19.207 20.2678L22.469 4.24981C22.5244 3.97788 22.5048 3.69604 22.4126 3.43433C22.3203 3.17263 22.1587 2.94088 21.945 2.76381V2.76481ZM9.58802 15.2948L8.88102 18.7318L7.40602 13.8538L14.721 10.0438L9.72402 15.0418C9.65482 15.111 9.60752 15.1989 9.58802 15.2948ZM18.227 20.0668C18.2082 20.1575 18.1665 20.2418 18.1057 20.3117C18.0449 20.3816 17.9672 20.4346 17.88 20.4658C17.7949 20.4986 17.7028 20.5086 17.6127 20.4949C17.5226 20.4812 17.4376 20.4443 17.366 20.3878L12.603 16.6988C12.5035 16.6219 12.3786 16.5854 12.2533 16.5966C12.128 16.6077 12.0115 16.6656 11.927 16.7588L9.83002 19.0698L10.536 15.6428L17.725 8.45281C17.8092 8.36834 17.8604 8.25656 17.8695 8.13765C17.8785 8.01873 17.8447 7.90051 17.7742 7.80431C17.7037 7.70811 17.6012 7.64028 17.4851 7.61305C17.3689 7.58582 17.2469 7.60098 17.141 7.65581L6.77802 13.0538L2.86102 11.6918C2.75717 11.6575 2.66659 11.5917 2.60188 11.5035C2.53718 11.4153 2.50158 11.3092 2.50002 11.1998C2.49504 11.0895 2.52452 10.9803 2.58437 10.8875C2.64422 10.7947 2.73147 10.7228 2.83402 10.6818L20.748 3.44881C20.8398 3.40981 20.9407 3.39719 21.0393 3.41238C21.1378 3.42758 21.2302 3.46998 21.306 3.53481C21.3814 3.5958 21.4383 3.67653 21.4705 3.76801C21.5026 3.85948 21.5087 3.95808 21.488 4.05281L18.227 20.0678V20.0668Z" fill="white"/>
</svg>
