<svg width="66" height="66" viewBox="0 0 66 66" fill="none" xmlns="http://www.w3.org/2000/svg">
<path d="M33 15.5C33.9665 15.5 34.75 16.2835 34.75 17.25V19C34.75 19.9665 33.9665 20.75 33 20.75C32.0335 20.75 31.25 19.9665 31.25 19V17.25C31.25 16.2835 32.0335 15.5 33 15.5ZM45.3745 20.6256C46.0579 21.309 46.0579 22.4171 45.3745 23.1005L44.137 24.3379C43.4536 25.0213 42.3456 25.0213 41.6621 24.3379C40.9787 23.6545 40.9787 22.5465 41.6621 21.8631L42.8996 20.6256C43.583 19.9422 44.691 19.9422 45.3745 20.6256ZM20.6256 20.6256C21.309 19.9422 22.4171 19.9422 23.1005 20.6256L24.3379 21.8631C25.0213 22.5465 25.0213 23.6545 24.3379 24.3379C23.6545 25.0213 22.5465 25.0213 21.8631 24.3379L20.6256 23.1005C19.9422 22.4171 19.9422 21.309 20.6256 20.6256ZM33 26C29.134 26 26 29.134 26 33C26 36.866 29.134 40 33 40C36.866 40 40 36.866 40 33C40 29.134 36.866 26 33 26ZM22.5 33C22.5 27.201 27.201 22.5 33 22.5C38.799 22.5 43.5 27.201 43.5 33C43.5 38.799 38.799 43.5 33 43.5C27.201 43.5 22.5 38.799 22.5 33ZM15.5 33C15.5 32.0335 16.2835 31.25 17.25 31.25H19C19.9665 31.25 20.75 32.0335 20.75 33C20.75 33.9665 19.9665 34.75 19 34.75H17.25C16.2835 34.75 15.5 33.9665 15.5 33ZM45.25 33C45.25 32.0335 46.0335 31.25 47 31.25H48.75C49.7165 31.25 50.5 32.0335 50.5 33C50.5 33.9665 49.7165 34.75 48.75 34.75H47C46.0335 34.75 45.25 33.9665 45.25 33ZM21.8631 41.662C22.5465 40.9786 23.6545 40.9786 24.3379 41.662C25.0213 42.3455 25.0213 43.4535 24.3379 44.1369L23.1005 45.3743C22.4171 46.0578 21.309 46.0578 20.6256 45.3743C19.9422 44.6909 19.9422 43.5829 20.6256 42.8995L21.8631 41.662ZM41.6621 44.1369C40.9787 43.4535 40.9787 42.3455 41.6621 41.662C42.3456 40.9786 43.4536 40.9786 44.137 41.662L45.3745 42.8995C46.0579 43.5829 46.0579 44.6909 45.3745 45.3744C44.691 46.0578 43.583 46.0578 42.8996 45.3744L41.6621 44.1369ZM33 45.25C33.9665 45.25 34.75 46.0335 34.75 47V48.75C34.75 49.7165 33.9665 50.5 33 50.5C32.0335 50.5 31.25 49.7165 31.25 48.75V47C31.25 46.0335 32.0335 45.25 33 45.25Z" fill="#263238"/>
<circle cx="33" cy="33" r="32" stroke="#263238" stroke-width="2"/>
</svg>
