<svg width="18" height="25" viewBox="0 0 18 25" fill="none" xmlns="http://www.w3.org/2000/svg">
<path d="M14.7244 0H2.82201C2.03266 0.0474154 1.29389 0.404367 0.766196 0.993317C0.238498 1.58227 -0.0355099 2.35564 0.00369522 3.14545V21.8546C-0.0355099 22.6444 0.238498 23.4177 0.766196 24.0067C1.29389 24.5956 2.03266 24.9526 2.82201 25H14.7244C15.5137 24.9526 16.2525 24.5956 16.7802 24.0067C17.3079 23.4177 17.5819 22.6444 17.5427 21.8546V3.14545C17.5819 2.35564 17.3079 1.58227 16.7802 0.993317C16.2525 0.404367 15.5137 0.0474154 14.7244 0ZM16.2845 21.8546C16.3229 22.3107 16.1811 22.7637 15.8895 23.1165C15.5978 23.4693 15.1796 23.6937 14.7244 23.7418H2.82201C2.36682 23.6937 1.94857 23.4693 1.65693 23.1165C1.36529 22.7637 1.22347 22.3107 1.26187 21.8546V3.14545C1.22347 2.68933 1.36529 2.23633 1.65693 1.88354C1.94857 1.53075 2.36682 1.30625 2.82201 1.25818H4.74703V1.89985C4.74703 2.23354 4.87959 2.55356 5.11554 2.78952C5.35149 3.02547 5.67152 3.15803 6.00521 3.15803H11.5412C11.8749 3.15803 12.1949 3.02547 12.4309 2.78952C12.6668 2.55356 12.7994 2.23354 12.7994 1.89985V1.25818H14.7244C15.1796 1.30625 15.5978 1.53075 15.8895 1.88354C16.1811 2.23633 16.3229 2.68933 16.2845 3.14545V21.8546Z" fill="#263238"/>
<path d="M6.2569 21.2245H11.2896C11.4565 21.2245 11.6165 21.1582 11.7344 21.0402C11.8524 20.9223 11.9187 20.7622 11.9187 20.5954C11.9187 20.4286 11.8524 20.2685 11.7344 20.1506C11.6165 20.0326 11.4565 19.9663 11.2896 19.9663H6.2569C6.09005 19.9663 5.93004 20.0326 5.81206 20.1506C5.69409 20.2685 5.62781 20.4286 5.62781 20.5954C5.62781 20.7622 5.69409 20.9223 5.81206 21.0402C5.93004 21.1582 6.09005 21.2245 6.2569 21.2245Z" fill="#263238"/>
</svg>
