<svg width="36" height="36" viewBox="0 0 36 36" fill="none" xmlns="http://www.w3.org/2000/svg">
<path d="M35.775 1.39999L34.95 7.625C32.9 7.475 31.35 7.875 30.3 8.82499C29.25 9.775 28.575 11.075 28.275 12.725C27.975 14.375 27.9 16.2 28.05 18.2H35.775V35.15H21.075V15.95C21.075 10.7 22.35 6.74999 24.9 4.1C27.5 1.39999 31.125 0.499994 35.775 1.39999ZM14.7 1.39999L13.875 7.625C11.825 7.475 10.275 7.875 9.225 8.82499C8.175 9.775 7.5 11.075 7.2 12.725C6.9 14.375 6.825 16.2 6.975 18.2H14.7V35.15H8.49366e-07V15.95C8.49366e-07 10.7 1.275 6.74999 3.825 4.1C6.425 1.39999 10.05 0.499994 14.7 1.39999Z" fill="#14B789"/>
</svg>
